<svg id="Capa_1" enable-background="new 0 0 512 512" height="512" viewBox="0 0 512 512" width="512" xmlns="http://www.w3.org/2000/svg"><g><path d="m428.925 0c-29.285 0-53.025 23.74-53.025 53.025v158.215h91.05c8.284 0 15-6.716 15-15v-143.215c0-29.285-23.74-53.025-53.025-53.025z"/><path d="m181.361 377c0-90.612 73.711-165.243 165.537-164.993v-152.521c0-22.817 8.589-43.663 22.697-59.486h-264.565c-41.34 0-74.98 33.64-74.98 74.98v421.75c0 13.494 16.507 20.123 25.84 10.37l19.19-20.04 20.27 20.28c5.85 5.85 15.35 5.85 21.21 0l19.21-19.2 19.4 19.24c5.85 5.8 15.28 5.8 21.13 0l19.71-19.54 19.72 19.54c5.84 5.8 15.26 5.8 21.11.01l3.82-3.78c-37.192-31.095-59.299-77.074-59.299-126.61zm-29.965-256h29.604v-29.604c0-8.284 6.716-15 15-15s15 6.716 15 15v29.604h29.604c8.284 0 15 6.716 15 15s-6.716 15-15 15h-29.604v29.604c0 8.284-6.716 15-15 15s-15-6.716-15-15v-29.604h-29.604c-8.284 0-15-6.716-15-15s6.716-15 15-15zm-45.397 105.05h101.001c8.284 0 15 6.716 15 15s-6.716 15-15 15h-101.001c-8.284 0-15-6.716-15-15s6.716-15 15-15zm50.05 149.9h-50.15c-8.284 0-15-6.716-15-15s6.716-15 15-15h50.15c8.284 0 15 6.716 15 15s-6.716 15-15 15zm10.001-59.9h-60.102c-8.284 0-15-6.716-15-15s6.716-15 15-15h60.102c8.284 0 15 6.716 15 15s-6.716 15-15 15z"/><path d="m346.362 242c-74.439 0-135 60.561-135 135s60.561 135 135 135 135-60.561 135-135-60.561-135-135-135zm15.047 192.769v1.426c0 8.284-6.716 15-15 15s-15-6.716-15-15v-.254c-6.719-1.601-12.953-4.248-17.896-7.482-6.933-4.536-8.876-13.832-4.341-20.765 4.536-6.934 13.832-8.876 20.765-4.341 6.139 4.017 16.259 5.542 21.233 3.202 3.223-1.517 5.717-4.754 6.064-7.872.743-6.642-9.663-10.347-15.876-12.801-9.402-3.713-21.104-8.335-27.897-20.599-9.683-17.479-1.202-40.526 17.948-48.408v-.755c0-8.284 6.716-15 15-15 8.202 0 14.857 6.586 14.988 14.757 5.399 1.687 10.373 4.387 14.355 8.06 6.09 5.617 6.473 15.106.856 21.196-5.617 6.091-15.107 6.472-21.196.856-2.467-2.277-10.072-3.195-13.377-.976-2.222 1.494-3.093 4.357-2.332 5.731 3.168 5.719 19.758 7.679 32.313 17.463 25.648 19.986 16.724 56.078-10.607 66.562z"/></g></svg>