<svg id="Capa_1" enable-background="new 0 0 512 512" height="512" viewBox="0 0 512 512" width="512" xmlns="http://www.w3.org/2000/svg"><g><ellipse cx="329.862" cy="61.06" rx="61.03" ry="61.06"/><path d="m499.403 275.802h-41.417c-5.654-49.417-46.589-88.075-95.839-88.075h-23.346c4.775 11.067 7.427 23.258 7.427 36.058 0 6.545-.725 13.055-2.129 19.454h16.103c8.28 0 14.993 6.716 14.993 15s-6.713 15-14.993 15h-210.427c-8.28 0-14.993-6.716-14.993-15s6.713-15 14.993-15h16.102c-1.404-6.4-2.129-12.909-2.129-19.454 0-12.8 2.652-24.991 7.427-36.058h-17.646c-47.342 0-87.005 35.719-95.03 82.379-2.406.873-4.938 1.434-7.567 1.629-10.733.797-20.117-7.3-20.911-18.041-.511-6.944 4.717-13.011 11.658-13.523 8.258-.61 14.458-7.802 13.848-16.064-.609-8.261-7.785-14.457-16.056-13.855-23.429 1.731-41.083 22.209-39.353 45.651 1.92 26.004 23.684 45.887 49.342 45.887 1.218 0 2.446-.045 3.681-.136 1.299-.096 2.59-.248 3.876-.432v56.538c0 48.557 33.997 89.296 78.594 98.045v41.195c0 8.284 6.713 15 14.993 15h35.426c8.28 0 14.993-6.716 14.993-15v-39.452h108.167v39.452c0 8.284 6.712 15 14.993 15h35.426c8.28 0 14.993-6.716 14.993-15v-40.309c44.412-5.987 79.591-43.487 83.658-89.925h41.144c6.928 0 12.597-5.861 12.597-13.025v-64.915c-.001-7.163-5.67-13.024-12.598-13.024z"/><path d="m313.05 243.24c2.089-6.24 3.193-12.815 3.193-19.455 0-33.792-27.479-61.284-61.254-61.284-33.776 0-61.255 27.492-61.255 61.284 0 6.64 1.104 13.215 3.193 19.455z"/></g></svg>